<svg xmlns="http://www.w3.org/2000/svg" version="1.1" xmlns:xlink="http://www.w3.org/1999/xlink" xmlns:svgjs="http://svgjs.dev/svgjs" width="128" height="128" viewBox="0 0 128 128"><g transform="matrix(0.64375,0,0,0.64375,22.659937238493725,12.33387096774193)"><svg viewBox="0 0 124 155" data-background-color="#ffffff" preserveAspectRatio="xMidYMid meet" height="160" width="128" xmlns="http://www.w3.org/2000/svg" xmlns:xlink="http://www.w3.org/1999/xlink"><g id="tight-bounds" transform="matrix(1,0,0,1,0.21077405857739961,0.25)"><svg viewBox="0 0 123.5784518828452 154.5" height="154.5" width="123.5784518828452"><g><svg viewBox="0 0 123.5784518828452 154.5" height="154.5" width="123.5784518828452"><g><svg viewBox="0 0 123.5784518828452 154.5" height="154.5" width="123.5784518828452"><g id="textblocktransform"><svg viewBox="0 0 123.5784518828452 154.5" height="154.5" width="123.5784518828452" id="textblock"><g><svg viewBox="0 0 123.5784518828452 154.5" height="154.5" width="123.5784518828452"><g transform="matrix(1,0,0,1,0,0)"><svg width="123.5784518828452" viewBox="1.49 -35.01 28 35.01" height="154.5" data-palette-color="#2a2c35"><path d="M18.99-10.96L18.99 0 12.01 0 12.01-10.96Q9.69-11.55 7.75-12.84 5.81-14.14 4.42-15.93 3.03-17.72 2.26-19.91 1.49-22.09 1.49-24.51L1.49-24.51 1.49-35.01 8.5-35.01 8.5-24.51Q8.5-23.07 9.05-21.79 9.59-20.51 10.55-19.56 11.5-18.6 12.78-18.05 14.06-17.5 15.5-17.5L15.5-17.5Q16.94-17.5 18.23-18.05 19.51-18.6 20.46-19.56 21.41-20.51 21.96-21.79 22.51-23.07 22.51-24.51L22.51-24.51 22.51-35.01 29.49-35.01 29.49-24.51Q29.49-22.09 28.72-19.91 27.95-17.72 26.56-15.93 25.17-14.14 23.24-12.84 21.31-11.55 18.99-10.96L18.99-10.96Z" opacity="1" transform="matrix(1,0,0,1,0,0)" fill="#2a2c35" class="wordmark-text-0" data-fill-palette-color="primary" id="text-0"></path></svg></g></svg></g></svg></g></svg></g></svg></g><defs></defs></svg><rect width="123.5784518828452" height="154.5" fill="none" stroke="none" visibility="hidden"></rect></g></svg></g></svg>